<?xml version="1.0" standalone="no"?>
<!DOCTYPE svg PUBLIC "-//W3C//DTD SVG 20010904//EN"
 "http://www.w3.org/TR/2001/REC-SVG-20010904/DTD/svg10.dtd">
<svg version="1.0" xmlns="http://www.w3.org/2000/svg"
 width="2764.000000pt" height="332.000000pt" viewBox="0 0 2764.000000 332.000000"
 preserveAspectRatio="xMidYMid meet">

<g transform="translate(0.000000,332.000000) scale(0.100000,-0.100000)"
fill="#000000" stroke="none">
<path d="M0 1660 l0 -1660 3855 0 c3848 0 3855 0 3855 20 0 16 7 20 30 20 23
0 30 -4 30 -20 0 -20 7 -20 9935 -20 l9935 0 0 1660 0 1660 -13820 0 -13820 0
0 -1660z m13648 1443 c3 -32 2 -33 -32 -33 -35 0 -36 1 -36 36 0 34 1 35 33
32 28 -3 32 -7 35 -35z m11022 -169 c0 -34 -1 -35 -32 -32 -29 3 -33 7 -36 36
-3 31 -2 32 32 32 35 0 36 -1 36 -36z m-21280 -59 c0 -33 -2 -35 -35 -35 -33
0 -35 2 -35 35 0 33 2 35 35 35 33 0 35 -2 35 -35z m16790 -36 c0 -39 -1 -40
-32 -37 -26 2 -34 8 -36 26 -5 36 3 47 37 49 30 2 31 1 31 -38z m-20080 -24
c0 -33 -2 -35 -35 -35 -33 0 -35 2 -35 35 0 33 2 35 35 35 33 0 35 -2 35 -35z
m16138 -17 c-3 -29 -6 -33 -33 -33 -27 0 -30 4 -33 33 -3 31 -2 32 33 32 35 0
36 -1 33 -32z m1652 -4 c0 -34 -1 -35 -32 -32 -29 3 -33 7 -36 36 -3 31 -2 32
32 32 35 0 36 -1 36 -36z m-10332 -31 c3 -32 2 -33 -32 -33 -33 0 -36 3 -36
28 0 36 8 44 40 40 20 -2 26 -9 28 -35z m16060 0 c2 -18 0 -33 -5 -34 -4 0
-18 -2 -30 -3 -20 -2 -23 2 -23 36 0 37 2 39 28 36 22 -2 28 -8 30 -35z
m-11300 -60 c24 22 37 9 16 -15 -14 -14 -14 -20 -4 -33 17 -20 5 -32 -15 -15
-12 10 -18 10 -30 0 -23 -19 -31 -3 -11 19 16 18 16 20 0 29 -10 6 -14 14 -9
22 6 10 11 9 21 -5 13 -17 15 -17 32 -2z m-3078 -88 c0 -33 -2 -35 -35 -35
-33 0 -35 2 -35 35 0 33 2 35 35 35 33 0 35 -2 35 -35z m9415 -65 c0 -32 -3
-35 -32 -38 -32 -3 -33 -3 -33 38 0 41 1 41 33 38 29 -3 32 -6 32 -38z m7135
5 c0 -33 -2 -35 -35 -35 -33 0 -35 2 -35 35 0 33 2 35 35 35 33 0 35 -2 35
-35z m-14260 -70 c0 -33 -2 -35 -35 -35 -33 0 -35 2 -35 35 0 33 2 35 35 35
33 0 35 -2 35 -35z m-7130 -30 c0 -33 -2 -35 -35 -35 -32 0 -35 3 -35 28 0 36
6 42 42 42 25 0 28 -3 28 -35z m16825 -45 c0 -32 -3 -35 -32 -38 -32 -3 -33
-3 -33 38 0 41 1 41 33 38 29 -3 32 -6 32 -38z m5185 -25 c0 -32 -2 -35 -30
-35 -28 0 -30 3 -30 35 0 32 2 35 30 35 28 0 30 -3 30 -35z m-12260 -75 c0
-27 -3 -30 -30 -30 -27 0 -30 3 -30 30 0 27 3 30 30 30 27 0 30 -3 30 -30z
m8910 -27 c0 -30 -3 -33 -30 -33 -26 0 -30 3 -30 29 0 30 11 39 43 38 12 -1
17 -10 17 -34z m4138 5 c-2 -28 -8 -34 -30 -36 -18 -2 -28 2 -29 10 -1 7 -3
23 -4 36 -2 19 2 22 32 22 33 0 34 -2 31 -32z m-20668 -43 c0 -33 -2 -35 -35
-35 -32 0 -35 3 -35 28 0 36 6 42 42 42 25 0 28 -3 28 -35z m4970 -70 c0 -32
-2 -35 -30 -35 -28 0 -30 3 -30 35 0 32 2 35 30 35 28 0 30 -3 30 -35z m9838
3 c-3 -29 -7 -33 -35 -36 -32 -3 -33 -2 -33 32 0 35 1 36 36 36 34 0 35 -1 32
-32z m4062 -43 c0 -32 -2 -35 -30 -35 -28 0 -30 3 -30 35 0 32 2 35 30 35 28
0 30 -3 30 -35z m-11940 -50 c0 -32 -3 -35 -28 -35 -37 0 -39 4 -34 40 4 25 9
30 33 30 26 0 29 -3 29 -35z m4160 -30 c0 -32 -2 -35 -30 -35 -28 0 -30 3 -30
35 0 32 2 35 30 35 28 0 30 -3 30 -35z m-14140 -80 c0 -33 -2 -35 -35 -35 -33
0 -35 2 -35 35 0 33 2 35 35 35 33 0 35 -2 35 -35z m1590 -10 c0 -33 -2 -35
-35 -35 -32 0 -35 3 -35 28 0 36 6 42 42 42 25 0 28 -3 28 -35z m3600 -30 c0
-32 -2 -35 -30 -35 -28 0 -30 3 -30 35 0 32 2 35 30 35 28 0 30 -3 30 -35z
m720 -20 c0 -32 -2 -35 -30 -35 -23 0 -31 5 -36 24 -8 34 2 46 37 46 27 0 29
-3 29 -35z m15480 -10 c0 -32 -2 -35 -30 -35 -28 0 -30 3 -30 35 0 32 2 35 30
35 28 0 30 -3 30 -35z m-9730 -10 c0 -32 -2 -35 -30 -35 -28 0 -30 3 -30 35 0
32 2 35 30 35 28 0 30 -3 30 -35z m-14380 -5 c0 -27 -3 -30 -30 -30 -27 0 -30
3 -30 30 0 27 3 30 30 30 27 0 30 -3 30 -30z m23320 0 c0 -27 -3 -30 -30 -30
-27 0 -30 3 -30 30 0 27 3 30 30 30 27 0 30 -3 30 -30z m-11180 -95 c0 -28 -4
-36 -24 -41 -33 -8 -46 2 -46 35 0 35 6 41 42 41 25 0 28 -3 28 -35z m4846
-41 c-3 -9 -6 -22 -6 -30 0 -9 -11 -14 -30 -14 -27 0 -30 3 -30 30 0 28 3 30
36 30 29 0 35 -3 30 -16z m5302 -71 c3 -32 2 -33 -32 -33 -35 0 -36 1 -36 36
0 34 1 35 33 32 28 -3 32 -7 35 -35z m2972 -13 c0 -28 -3 -30 -35 -30 -32 0
-35 2 -35 30 0 28 3 30 35 30 32 0 35 -2 35 -30z m-20222 -107 c3 -31 1 -33
-27 -33 -29 0 -31 3 -31 36 0 33 2 35 28 32 22 -2 28 -8 30 -35z m21432 2 c0
-32 -2 -35 -30 -35 -28 0 -30 3 -30 35 0 32 2 35 30 35 28 0 30 -3 30 -35z
m-22650 -10 c0 -32 -2 -35 -30 -35 -28 0 -30 3 -30 35 0 32 2 35 30 35 28 0
30 -3 30 -35z m15336 13 c-3 -13 -6 -29 -6 -35 0 -8 -13 -13 -30 -13 -28 0
-30 3 -30 35 0 34 2 35 36 35 33 0 36 -2 30 -22z m-6566 -53 c0 -32 -2 -35
-30 -35 -28 0 -30 3 -30 35 0 32 2 35 30 35 28 0 30 -3 30 -35z m3620 -5 c0
-27 -3 -30 -30 -30 -27 0 -30 3 -30 30 0 27 3 30 30 30 27 0 30 -3 30 -30z
m-4070 -15 c0 -33 -2 -35 -35 -35 -32 0 -35 3 -35 28 0 36 6 42 42 42 25 0 28
-3 28 -35z m-10192 -21 c2 -25 -1 -33 -18 -37 -36 -9 -50 2 -50 40 0 33 1 34
33 31 28 -3 32 -7 35 -34z m21332 1 c0 -32 -2 -35 -30 -35 -28 0 -30 3 -30 35
0 32 2 35 30 35 28 0 30 -3 30 -35z m-2232 -137 c-3 -29 -6 -33 -33 -33 -27 0
-30 4 -33 33 -3 31 -2 32 33 32 35 0 36 -1 33 -32z m-10688 -13 c0 -33 -2 -35
-35 -35 -33 0 -35 2 -35 35 0 33 2 35 35 35 33 0 35 -2 35 -35z m7130 -55 c0
-27 -3 -30 -30 -30 -27 0 -30 3 -30 30 0 27 3 30 30 30 27 0 30 -3 30 -30z
m-3440 -25 c0 -32 -2 -35 -30 -35 -26 0 -30 4 -30 28 0 35 6 42 37 42 20 0 23
-5 23 -35z m10820 -25 c0 -28 -3 -30 -35 -30 -32 0 -35 2 -35 30 0 28 3 30 35
30 32 0 35 -2 35 -30z m-882 -17 c3 -32 2 -33 -32 -33 -33 0 -36 3 -36 28 0
36 8 44 40 40 20 -2 26 -9 28 -35z m-5520 -25 c-3 -27 -7 -32 -30 -33 -25 -2
-28 1 -28 32 0 30 3 33 31 33 28 0 30 -2 27 -32z m7122 -28 c0 -27 -3 -30 -30
-30 -27 0 -30 3 -30 30 0 27 3 30 30 30 27 0 30 -3 30 -30z m-25980 -20 c0
-27 -3 -30 -30 -30 -27 0 -30 3 -30 30 0 27 3 30 30 30 27 0 30 -3 30 -30z
m16000 -35 c0 -32 -2 -35 -30 -35 -28 0 -30 3 -30 35 0 32 2 35 30 35 28 0 30
-3 30 -35z m5850 0 c0 -32 -2 -35 -30 -35 -28 0 -30 3 -30 35 0 32 2 35 30 35
28 0 30 -3 30 -35z m-15430 -20 c0 -32 -2 -35 -30 -35 -28 0 -30 3 -30 35 0
32 2 35 30 35 28 0 30 -3 30 -35z m14600 -115 c0 -27 -3 -30 -30 -30 -27 0
-30 3 -30 30 0 27 3 30 30 30 27 0 30 -3 30 -30z m2230 -20 c0 -27 -3 -30 -30
-30 -27 0 -30 3 -30 30 0 27 3 30 30 30 27 0 30 -3 30 -30z m-6710 -105 c0
-33 -2 -35 -35 -35 -33 0 -35 2 -35 35 0 33 2 35 35 35 33 0 35 -2 35 -35z
m-1078 -10 c-4 -31 -8 -35 -33 -35 -26 0 -29 3 -29 35 0 33 2 35 33 35 32 0
33 -1 29 -35z m-12132 -27 c0 -30 -3 -33 -30 -34 -28 -1 -30 2 -30 32 0 31 3
34 30 34 27 0 30 -3 30 -32z m21740 2 c0 -27 -3 -30 -30 -30 -27 0 -30 3 -30
30 0 27 3 30 30 30 27 0 30 -3 30 -30z m-13100 -25 c0 -32 -2 -35 -30 -35 -28
0 -30 3 -30 35 0 32 2 35 30 35 28 0 30 -3 30 -35z m6255 -10 c0 -27 -4 -30
-32 -33 -32 -3 -33 -2 -33 33 0 35 1 36 33 33 28 -3 32 -6 32 -33z m-15615
-174 c0 -21 -6 -30 -22 -35 -36 -9 -38 -8 -38 29 0 32 2 35 30 35 26 0 30 -3
30 -29z m10300 -6 c0 -32 -2 -35 -30 -35 -28 0 -30 3 -30 35 0 32 2 35 30 35
28 0 30 -3 30 -35z m9810 -115 c0 -27 -3 -30 -30 -30 -27 0 -30 3 -30 30 0 27
3 30 30 30 27 0 30 -3 30 -30z m-9750 -30 c0 -27 -3 -30 -30 -30 -27 0 -30 3
-30 30 0 27 3 30 30 30 27 0 30 -3 30 -30z m4708 -7 c3 -31 1 -33 -27 -33 -28
0 -31 3 -31 34 0 30 3 33 28 32 23 -1 27 -6 30 -33z m8732 -23 c0 -28 -3 -30
-35 -30 -33 0 -35 2 -33 30 2 27 6 30 35 30 30 0 33 -3 33 -30z m-1360 -84 c0
-32 -2 -34 -27 -32 -47 5 -44 66 2 66 22 0 25 -4 25 -34z m-24630 -57 c0 -28
-2 -30 -32 -27 -28 2 -34 8 -36 31 -3 25 -1 27 32 27 33 0 36 -2 36 -31z m920
1 c0 -27 -3 -30 -30 -30 -27 0 -30 3 -30 30 0 27 3 30 30 30 27 0 30 -3 30
-30z m18430 -5 c0 -32 -2 -35 -30 -35 -27 0 -30 3 -30 33 0 28 3 32 30 34 28
2 30 0 30 -32z m4420 0 c0 -32 -2 -35 -30 -35 -28 0 -30 3 -30 35 0 32 2 35
30 35 28 0 30 -3 30 -35z m-5120 -70 c0 -32 -2 -35 -30 -35 -28 0 -30 3 -30
35 0 32 2 35 30 35 28 0 30 -3 30 -35z m2670 4 c0 -28 -2 -30 -32 -27 -28 2
-34 8 -36 31 -3 25 -1 27 32 27 33 0 36 -2 36 -31z m-16110 -19 c0 -27 -3 -30
-30 -30 -27 0 -30 3 -30 30 0 27 3 30 30 30 27 0 30 -3 30 -30z m3580 -109 c0
-24 -5 -29 -30 -33 -28 -4 -30 -3 -30 29 0 30 3 33 30 33 26 0 30 -3 30 -29z
m968 -3 c-3 -29 -6 -33 -33 -33 -27 0 -30 4 -33 33 -3 31 -2 32 33 32 35 0 36
-1 33 -32z m-7298 -28 c0 -28 -3 -30 -35 -30 -32 0 -35 2 -35 30 0 28 3 30 35
30 32 0 35 -2 35 -30z"/>
</g>
</svg>
